<svg width="96" height="76" viewBox="0 0 96 76" fill="none" xmlns="http://www.w3.org/2000/svg">
  <!-- Yellow top rhombus -->
  <path d="M 44.4,6.8  Q 48,5    51.6,6.8
           L 76.4,19.2 Q 80,21   76.4,22.8
           L 51.6,35.2 Q 48,37   44.4,35.2
           L 19.6,22.8 Q 16,21   19.6,19.2 Z"
        fill="#FCB400"/>
  <!-- Blue right parallelogram -->
  <path d="M 78.4,25.8 Q 82,24   82,28
           L 82,52     Q 82,56   78.3,57.6
           L 53.7,68.4 Q 50,70   50,66
           L 50,44     Q 50,40   53.6,38.2 Z"
        fill="#18BFFF"/>
  <!-- Red left triangle -->
  <path d="M 16.7,25.3 Q 14,24   14,27
           L 14,49     Q 14,52   16.8,51
           L 43.2,41.1 Q 46,40   43.3,38.7 Z"
        fill="#F82B60"/>
  <!-- Inner darker red -->
  <path d="M 15.5,25.3 Q 14,24   15.8,24.9
           L 44.2,39.1 Q 46,40   44.1,40.7
           L 37.2,43.3 Q 35.3,44 33.8,42.6 Z"
        fill="#B01030"/>
</svg>
